<mxfile host="65bd71144e">
    <diagram id="YQEeyEsAXImCTdxHAv1M" name="第 1 页">
        <mxGraphModel dx="1172" dy="791" grid="0" gridSize="10" guides="1" tooltips="1" connect="1" arrows="1" fold="1" page="1" pageScale="1" pageWidth="2339" pageHeight="3300" background="#ffffff" math="0" shadow="0">
            <root>
                <mxCell id="0"/>
                <mxCell id="1" parent="0"/>
                <mxCell id="104" value="" style="group" vertex="1" connectable="0" parent="1">
                    <mxGeometry x="98" y="95" width="800" height="101" as="geometry"/>
                </mxCell>
                <mxCell id="67" value="" style="rounded=1;whiteSpace=wrap;html=1;fontSize=16;fillColor=#E0D3C3;" parent="104" vertex="1">
                    <mxGeometry width="800" height="101" as="geometry"/>
                </mxCell>
                <mxCell id="80" value="shared_bytes&lt;br&gt;0" style="rounded=1;whiteSpace=wrap;html=1;fontSize=16;fillColor=#D8B29C;fontColor=default;labelBackgroundColor=none;" parent="104" vertex="1">
                    <mxGeometry x="12" y="19" width="120" height="59" as="geometry"/>
                </mxCell>
                <mxCell id="84" value="value_length&lt;br&gt;" style="rounded=1;whiteSpace=wrap;html=1;fontSize=16;fillColor=#8D91AA;fontColor=default;labelBackgroundColor=none;" parent="104" vertex="1">
                    <mxGeometry x="324" y="19" width="109" height="59" as="geometry"/>
                </mxCell>
                <mxCell id="100" value="key_delta&lt;br&gt;&quot;abc&quot;" style="rounded=1;whiteSpace=wrap;html=1;fontSize=16;fillColor=#ACD4D6;fontColor=default;labelBackgroundColor=none;" parent="104" vertex="1">
                    <mxGeometry x="463" y="19" width="134" height="59" as="geometry"/>
                </mxCell>
                <mxCell id="102" value="unshared_bytes&lt;br&gt;0" style="rounded=1;whiteSpace=wrap;html=1;fontSize=16;fillColor=#A2886D;fontColor=default;labelBackgroundColor=none;" vertex="1" parent="104">
                    <mxGeometry x="162" y="19" width="132" height="59" as="geometry"/>
                </mxCell>
                <mxCell id="103" value="value" style="rounded=1;whiteSpace=wrap;html=1;fontSize=16;fillColor=#A6BAAF;fontColor=default;labelBackgroundColor=none;" vertex="1" parent="104">
                    <mxGeometry x="627" y="19" width="134" height="59" as="geometry"/>
                </mxCell>
                <mxCell id="105" value="" style="group" vertex="1" connectable="0" parent="1">
                    <mxGeometry x="98" y="216" width="800" height="101" as="geometry"/>
                </mxCell>
                <mxCell id="106" value="" style="rounded=1;whiteSpace=wrap;html=1;fontSize=16;fillColor=#E0D3C3;" vertex="1" parent="105">
                    <mxGeometry width="800" height="101" as="geometry"/>
                </mxCell>
                <mxCell id="107" value="shared_bytes&lt;br&gt;2" style="rounded=1;whiteSpace=wrap;html=1;fontSize=16;fillColor=#D8B29C;fontColor=default;labelBackgroundColor=none;" vertex="1" parent="105">
                    <mxGeometry x="12" y="19" width="120" height="59" as="geometry"/>
                </mxCell>
                <mxCell id="108" value="value_length&lt;br&gt;" style="rounded=1;whiteSpace=wrap;html=1;fontSize=16;fillColor=#8D91AA;fontColor=default;labelBackgroundColor=none;" vertex="1" parent="105">
                    <mxGeometry x="324" y="19" width="109" height="59" as="geometry"/>
                </mxCell>
                <mxCell id="109" value="key_delta&lt;br&gt;&quot;d&quot;" style="rounded=1;whiteSpace=wrap;html=1;fontSize=16;fillColor=#ACD4D6;fontColor=default;labelBackgroundColor=none;" vertex="1" parent="105">
                    <mxGeometry x="463" y="19" width="134" height="59" as="geometry"/>
                </mxCell>
                <mxCell id="110" value="unshared_bytes&lt;br&gt;1" style="rounded=1;whiteSpace=wrap;html=1;fontSize=16;fillColor=#A2886D;fontColor=default;labelBackgroundColor=none;" vertex="1" parent="105">
                    <mxGeometry x="162" y="19" width="132" height="59" as="geometry"/>
                </mxCell>
                <mxCell id="111" value="value" style="rounded=1;whiteSpace=wrap;html=1;fontSize=16;fillColor=#A6BAAF;fontColor=default;labelBackgroundColor=none;" vertex="1" parent="105">
                    <mxGeometry x="627" y="19" width="134" height="59" as="geometry"/>
                </mxCell>
                <mxCell id="112" value="" style="group" vertex="1" connectable="0" parent="1">
                    <mxGeometry x="98" y="337" width="800" height="101" as="geometry"/>
                </mxCell>
                <mxCell id="113" value="" style="rounded=1;whiteSpace=wrap;html=1;fontSize=16;fillColor=#E0D3C3;" vertex="1" parent="112">
                    <mxGeometry width="800" height="101" as="geometry"/>
                </mxCell>
                <mxCell id="114" value="shared_bytes&lt;br&gt;3" style="rounded=1;whiteSpace=wrap;html=1;fontSize=16;fillColor=#D8B29C;fontColor=default;labelBackgroundColor=none;" vertex="1" parent="112">
                    <mxGeometry x="12" y="19" width="120" height="59" as="geometry"/>
                </mxCell>
                <mxCell id="115" value="value_length&lt;br&gt;" style="rounded=1;whiteSpace=wrap;html=1;fontSize=16;fillColor=#8D91AA;fontColor=default;labelBackgroundColor=none;" vertex="1" parent="112">
                    <mxGeometry x="324" y="19" width="109" height="59" as="geometry"/>
                </mxCell>
                <mxCell id="116" value="key_delta&lt;br&gt;&quot;ef&quot;" style="rounded=1;whiteSpace=wrap;html=1;fontSize=16;fillColor=#ACD4D6;fontColor=default;labelBackgroundColor=none;" vertex="1" parent="112">
                    <mxGeometry x="463" y="19" width="134" height="59" as="geometry"/>
                </mxCell>
                <mxCell id="117" value="unshared_bytes&lt;br&gt;1" style="rounded=1;whiteSpace=wrap;html=1;fontSize=16;fillColor=#A2886D;fontColor=default;labelBackgroundColor=none;" vertex="1" parent="112">
                    <mxGeometry x="162" y="19" width="132" height="59" as="geometry"/>
                </mxCell>
                <mxCell id="118" value="value" style="rounded=1;whiteSpace=wrap;html=1;fontSize=16;fillColor=#A6BAAF;fontColor=default;labelBackgroundColor=none;" vertex="1" parent="112">
                    <mxGeometry x="627" y="19" width="134" height="59" as="geometry"/>
                </mxCell>
            </root>
        </mxGraphModel>
    </diagram>
</mxfile>